# xmcd CD database file
#
# Track frame offsets:
#	150
#	22774
#	54879
#	78365
#	108796
#	129781
#	156971
#	178646
#	204463
#	231276
#	249137
#
# Disc length: 3717 seconds
#
# Revision: 1
# Processed by: cddbd v1.5.2PL0 Copyright (c) Steve Scherf et al.
# Submitted via: CDex 1.51
#
DISCID=740e830b
DTITLE=Roditi. Ignatzek. Rassinfosse. - beyond question
DYEAR=2008
DGENRE=Jazz
TTITLE0=Pleasant journey
TTITLE1=Early hour
TTITLE2=Hot temper
TTITLE3=Sound of the sea
TTITLE4=Change of air
TTITLE5=Piccolo blues
TTITLE6=Stay within sight
TTITLE7=Hanksome
TTITLE8=Hidden secret
TTITLE9=Other side of the coin
TTITLE10=Love dance
EXTD=YEAR: 2008
EXTT0=
EXTT1=
EXTT2=
EXTT3=
EXTT4=
EXTT5=
EXTT6=
EXTT7=
EXTT8=
EXTT9=
EXTT10=
PLAYORDER=
